<svg xmlns="http://www.w3.org/2000/svg" viewBox="0 0 100 100" width="100" height="100">
  <defs>
    <linearGradient id="grad1" x1="0%" y1="0%" x2="100%" y2="100%">
      <stop offset="0%" style="stop-color:#8B5CF6;stop-opacity:1" />
      <stop offset="100%" style="stop-color:#6D28D9;stop-opacity:1" />
    </linearGradient>
  </defs>

  <!-- Brain icon stylized -->
  <path d="M50 20 C30 20 20 35 20 50 C20 65 30 80 50 80 C70 80 80 65 80 50 C80 35 70 20 50 20 Z" fill="url(#grad1)" opacity="0.2"/>

  <path d="M50 25 C35 25 25 35 25 45 C25 48 26 51 28 53 L28 65 C28 70 32 75 37 75 L50 75 L63 75 C68 75 72 70 72 65 L72 53 C74 51 75 48 75 45 C75 35 65 25 50 25 Z" fill="url(#grad1)"/>

  <!-- Brain details -->
  <path d="M40 35 Q35 35 35 40 T40 45 M60 35 Q65 35 65 40 T60 45 M45 45 Q50 50 55 45 M40 55 Q45 60 50 55 Q55 60 60 55" stroke="white" stroke-width="2" fill="none" opacity="0.5"/>

  <!-- Shield overlay for privacy -->
  <path d="M50 60 L40 55 L40 45 L50 40 L60 45 L60 55 Z" fill="white" opacity="0.3"/>
</svg>